<svg xmlns="http://www.w3.org/2000/svg" width="1080" height="1024" viewBox="0 0 1080 1024" version="1.1"><path d="M 519.355 32.979 C 519.091 33.242, 516.091 33.546, 512.688 33.654 C 509.284 33.761, 505.150 34.160, 503.500 34.539 C 501.850 34.918, 498.409 35.346, 495.854 35.491 C 493.299 35.635, 490.750 36.037, 490.190 36.383 C 489.629 36.729, 487.670 36.984, 485.836 36.949 C 484.001 36.914, 478.900 37.621, 474.500 38.519 C 470.100 39.417, 465.825 40.504, 465 40.933 C 464.175 41.363, 463.354 42.455, 463.176 43.360 C 462.998 44.265, 463.673 45.306, 464.676 45.673 C 465.679 46.040, 467.400 47.051, 468.500 47.920 C 469.600 48.789, 470.500 50.625, 470.500 52 C 470.500 53.375, 471.162 55.585, 471.971 56.912 C 472.780 58.238, 473.597 60.488, 473.786 61.912 C 473.976 63.335, 475.005 65.433, 476.074 66.574 C 477.144 67.715, 477.677 68.989, 477.261 69.406 C 476.844 69.823, 477.376 70.802, 478.443 71.582 C 479.509 72.362, 480.031 73, 479.602 73 C 479.173 73, 479.987 74.385, 481.411 76.077 C 482.835 77.769, 484.077 79.906, 484.171 80.827 C 484.265 81.747, 484.378 83.625, 484.421 85 C 484.464 86.375, 485.009 87.405, 485.631 87.290 C 486.253 87.174, 487.553 87.953, 488.519 89.021 C 489.917 90.565, 490.030 91.259, 489.071 92.414 C 488.109 93.573, 488.241 94.241, 489.722 95.722 C 490.743 96.743, 492.548 99.439, 493.733 101.713 C 495.616 105.324, 495.701 106.003, 494.411 107.074 C 493.127 108.139, 493.223 108.609, 495.141 110.650 C 496.355 111.943, 496.975 113, 496.519 113 C 496.063 113, 496.477 113.870, 497.439 114.933 C 498.473 116.075, 499.865 116.619, 500.844 116.263 C 502.272 115.744, 502.248 115.948, 500.667 117.751 C 498.880 119.789, 498.890 119.871, 501.066 121.035 C 502.677 121.898, 507.773 122.057, 519.399 121.608 C 528.254 121.266, 542.475 121.009, 551 121.038 C 559.525 121.067, 570.325 121.320, 575 121.600 C 579.675 121.880, 585.300 122.262, 587.500 122.449 C 589.700 122.636, 591.725 122.875, 592 122.979 C 592.275 123.083, 594.975 123.330, 598 123.527 C 601.025 123.724, 605.300 124.158, 607.500 124.491 C 609.700 124.825, 613.468 125.291, 615.873 125.529 C 618.279 125.766, 620.847 126.458, 621.580 127.066 C 622.313 127.674, 623.351 127.901, 623.887 127.570 C 624.423 127.238, 625.144 127.425, 625.490 127.984 C 625.835 128.543, 627.415 129, 629 129 C 630.585 129, 632.156 129.443, 632.491 129.985 C 632.825 130.526, 634.089 130.915, 635.300 130.848 C 636.510 130.780, 640.824 131.676, 644.887 132.837 C 648.950 133.998, 652.631 134.728, 653.068 134.458 C 653.505 134.188, 654.127 134.397, 654.451 134.921 C 654.776 135.446, 658.704 137.028, 663.182 138.438 C 667.659 139.847, 672.155 141, 673.172 141 C 674.189 141, 677.154 141.937, 679.761 143.081 C 682.367 144.226, 686.075 145.849, 688 146.689 C 689.925 147.528, 692.601 148.417, 693.946 148.663 C 695.291 148.909, 700.473 151.043, 705.462 153.406 C 710.450 155.768, 716.324 158.320, 718.515 159.076 C 720.707 159.833, 724.075 161.396, 726 162.549 C 727.925 163.702, 730.221 164.911, 731.103 165.235 C 731.984 165.559, 735.926 167.889, 739.863 170.412 C 743.799 172.935, 747.384 175, 747.828 175 C 748.273 175, 754.231 178.644, 761.068 183.098 C 767.906 187.553, 774.911 192.165, 776.635 193.348 C 778.360 194.532, 782.410 197.493, 785.635 199.929 C 788.861 202.365, 797.846 209.639, 805.602 216.092 C 813.359 222.546, 824.834 232.962, 831.102 239.238 C 837.371 245.515, 845.100 253.465, 848.279 256.904 C 851.457 260.344, 854.823 264.360, 855.759 265.829 C 856.694 267.298, 859.586 271.200, 862.184 274.500 C 864.783 277.800, 868.392 282.234, 870.205 284.353 C 872.017 286.472, 874.400 289.649, 875.500 291.412 C 876.600 293.176, 879.638 297.821, 882.250 301.734 C 884.862 305.648, 887 309.176, 887 309.574 C 887 309.972, 888.912 312.691, 891.250 315.617 C 893.587 318.542, 896.175 321.847, 897 322.960 C 898.466 324.938, 899.535 324.986, 944.330 325.078 C 969.537 325.130, 990.394 324.939, 990.680 324.653 C 990.966 324.368, 990.638 322.416, 989.951 320.317 C 989.264 318.218, 987.644 314.933, 986.351 313.018 C 985.058 311.103, 984 308.840, 984 307.990 C 984 307.140, 982.661 303.864, 981.024 300.710 C 979.388 297.555, 978.048 294.749, 978.046 294.473 C 978.045 294.198, 976.405 291.411, 974.403 288.281 C 972.401 285.151, 970.686 282.120, 970.592 281.545 C 970.499 280.970, 969.584 279.150, 968.561 277.500 C 967.537 275.850, 964.351 270.900, 961.480 266.500 C 958.609 262.100, 954.065 255.125, 951.381 251 C 948.697 246.875, 946.329 243.050, 946.117 242.500 C 945.905 241.950, 944.218 239.624, 942.366 237.332 C 940.515 235.039, 939 232.903, 939 232.584 C 939 232.265, 937.375 229.743, 935.389 226.978 C 933.402 224.213, 930.962 221.515, 929.965 220.981 C 928.968 220.448, 927.511 218.725, 926.727 217.154 C 925.943 215.583, 919.860 208.043, 913.209 200.398 C 906.559 192.754, 895.058 180.558, 887.652 173.296 C 880.246 166.034, 870.063 156.584, 865.022 152.296 C 859.982 148.008, 851.952 141.476, 847.179 137.780 C 842.406 134.084, 836.025 129.224, 833 126.981 C 829.975 124.738, 822.669 119.832, 816.764 116.080 C 810.858 112.328, 804.522 108.110, 802.682 106.706 C 800.842 105.303, 797.573 103.142, 795.418 101.905 C 793.263 100.668, 788.210 97.901, 784.189 95.757 C 780.169 93.612, 775.268 90.765, 773.300 89.429 C 771.331 88.093, 769.124 87, 768.395 87 C 767.666 87, 764.941 85.650, 762.339 84 C 759.737 82.350, 757.134 81.005, 756.554 81.012 C 755.974 81.018, 751.450 79.001, 746.500 76.529 C 741.550 74.057, 736.375 71.835, 735 71.592 C 733.625 71.348, 732.388 71.059, 732.250 70.949 C 732.112 70.840, 731.663 70.662, 731.250 70.554 C 730.837 70.446, 729.150 69.764, 727.500 69.040 C 725.850 68.315, 722.075 66.636, 719.111 65.308 C 716.147 63.981, 712.322 62.629, 710.611 62.305 C 708.900 61.981, 704.658 60.445, 701.185 58.891 C 697.711 57.337, 693.211 55.734, 691.185 55.328 C 689.158 54.922, 687.275 54.532, 687 54.461 C 686.725 54.390, 685.233 53.808, 683.685 53.166 C 682.137 52.525, 679.801 52, 678.494 52 C 677.187 52, 675.833 51.538, 675.484 50.973 C 675.135 50.409, 674.321 50.032, 673.675 50.136 C 673.029 50.241, 671.349 50, 669.941 49.602 C 668.534 49.205, 666.509 48.716, 665.441 48.516 C 664.374 48.316, 663.500 48.082, 663.500 47.994 C 663.500 47.907, 662.150 47.634, 660.500 47.387 C 658.850 47.141, 656.150 46.473, 654.500 45.903 C 652.850 45.334, 649.528 44.662, 647.117 44.411 C 644.706 44.159, 642.231 43.638, 641.617 43.252 C 641.003 42.866, 639.686 42.684, 638.690 42.848 C 637.695 43.012, 636.345 42.726, 635.690 42.214 C 635.036 41.701, 632.475 41.217, 630 41.139 C 627.525 41.061, 622.125 40.549, 618 40.002 C 613.875 39.455, 607.800 38.526, 604.500 37.937 C 601.200 37.349, 595.575 36.663, 592 36.412 C 588.425 36.162, 583.925 35.409, 582 34.739 C 580.075 34.070, 576.250 33.410, 573.500 33.274 C 570.750 33.138, 557.550 32.908, 544.167 32.763 C 530.784 32.618, 519.619 32.716, 519.355 32.979 M 141.040 240.457 C 139.770 241.809, 137.232 245.297, 135.400 248.207 C 133.568 251.118, 131.140 255.197, 130.004 257.270 C 128.868 259.344, 126.155 263.394, 123.974 266.270 C 121.793 269.147, 120.007 271.824, 120.004 272.219 C 120.002 272.615, 117.814 276.665, 115.141 281.219 C 112.469 285.774, 108.810 292.650, 107.011 296.500 C 105.211 300.350, 103.126 304.206, 102.378 305.070 C 101.629 305.933, 100.161 309.125, 99.116 312.163 C 98.071 315.201, 96.042 319.891, 94.608 322.585 C 93.173 325.280, 92 328.423, 92 329.571 C 92 330.718, 90.537 333.789, 88.750 336.395 C 86.962 339.002, 84.944 342.116, 84.265 343.317 C 83.585 344.518, 83.019 346.625, 83.006 348 C 82.993 349.375, 81.386 355, 79.436 360.500 C 77.486 366, 75.422 372.075, 74.850 374 C 74.278 375.925, 72.952 380.073, 71.905 383.218 C 70.857 386.364, 70 390.548, 70 392.518 C 70 394.488, 69.261 397.529, 68.357 399.276 C 67.454 401.024, 66.070 404.939, 65.282 407.977 C 64.494 411.014, 63.472 416.425, 63.010 420 C 62.548 423.575, 61.040 431, 59.659 436.500 C 58.277 442, 56.340 454.150, 55.353 463.500 C 53.986 476.464, 53.553 489.047, 53.530 516.500 C 53.514 536.300, 53.849 557, 54.275 562.500 C 54.702 568, 55.744 578.125, 56.591 585 C 57.438 591.875, 59.184 602, 60.470 607.500 C 61.755 613, 63.508 621.783, 64.365 627.018 C 65.221 632.252, 67.289 639.852, 68.961 643.905 C 70.632 647.959, 72 652.381, 72 653.734 C 72 655.086, 72.725 658.736, 73.611 661.846 C 74.497 664.956, 76.452 670.650, 77.956 674.500 C 79.460 678.350, 81.479 684.200, 82.444 687.500 C 83.409 690.800, 85.391 696.175, 86.849 699.445 C 88.307 702.715, 90.539 706.936, 91.808 708.825 C 93.077 710.714, 95.440 715.887, 97.058 720.322 C 98.677 724.757, 101.716 731.336, 103.813 734.943 C 105.910 738.549, 110.239 746.666, 113.434 752.979 C 116.628 759.293, 120.690 766.268, 122.460 768.479 C 124.229 770.691, 127.415 775.425, 129.538 779 C 131.661 782.575, 135.424 788.425, 137.900 792 C 140.376 795.575, 144.224 800.981, 146.451 804.013 C 148.678 807.046, 153.875 813.736, 158 818.881 C 162.125 824.026, 170.741 834.145, 177.147 841.368 C 183.553 848.590, 194.394 859.900, 201.238 866.500 C 208.082 873.100, 216.341 880.976, 219.591 884.002 C 222.841 887.028, 227.975 891.276, 231 893.441 C 234.025 895.607, 238.801 899.431, 241.613 901.939 C 244.425 904.448, 248.700 907.748, 251.113 909.274 C 253.526 910.799, 259.710 914.975, 264.855 918.552 C 270 922.130, 275.625 925.789, 277.355 926.683 C 279.085 927.577, 282.075 929.558, 284 931.084 C 285.925 932.611, 290.200 935.301, 293.500 937.063 C 296.800 938.824, 301.075 941.139, 303 942.205 C 304.925 943.272, 307.850 945.005, 309.500 946.057 C 311.150 947.109, 315.875 949.600, 320 951.593 C 324.125 953.586, 331.550 957.118, 336.500 959.443 C 341.450 961.767, 347.525 964.585, 350 965.705 C 352.475 966.825, 357.425 968.776, 361 970.040 C 364.575 971.304, 367.999 972.714, 368.609 973.174 C 369.219 973.634, 372.144 974.884, 375.109 975.951 C 378.074 977.018, 382.525 978.636, 385 979.547 C 387.475 980.458, 394.900 982.766, 401.500 984.675 C 408.100 986.584, 419.125 989.471, 426 991.090 C 432.875 992.710, 443.900 995.166, 450.500 996.549 C 457.100 997.932, 469.250 1000.205, 477.500 1001.599 C 485.750 1002.994, 498.575 1004.599, 506 1005.166 C 513.425 1005.733, 531.200 1006.248, 545.500 1006.312 C 559.800 1006.376, 572.063 1006.080, 572.750 1005.655 C 573.718 1005.056, 574 995.255, 574 962.141 C 574 933.435, 573.653 919.053, 572.943 918.343 C 572.228 917.628, 563.536 917.446, 546.130 917.781 C 530.793 918.076, 513.726 917.795, 503.937 917.088 C 494.897 916.434, 482.325 915.010, 476 913.923 C 469.675 912.837, 461.575 911.277, 458 910.457 C 454.425 909.637, 448.350 908.279, 444.500 907.440 C 440.650 906.601, 433.675 904.771, 429 903.373 C 424.325 901.975, 417.800 899.980, 414.500 898.940 C 411.200 897.899, 404.675 895.651, 400 893.944 C 395.325 892.236, 390.375 890.480, 389 890.041 C 387.625 889.602, 383.274 887.613, 379.331 885.621 C 375.388 883.630, 371.776 882, 371.303 882 C 370.831 882, 367.082 880.277, 362.972 878.171 C 358.863 876.065, 352.350 872.404, 348.500 870.035 C 344.650 867.667, 338.125 863.957, 334 861.791 C 329.875 859.625, 325.600 857.055, 324.500 856.079 C 323.400 855.103, 320.025 852.889, 317 851.159 C 313.975 849.429, 309.166 846.323, 306.313 844.257 C 303.461 842.191, 297.611 837.814, 293.313 834.531 C 289.016 831.248, 281.675 825.347, 277 821.418 C 272.325 817.488, 261.498 807.349, 252.940 798.887 C 244.382 790.424, 233.357 778.669, 228.440 772.765 C 223.523 766.860, 217.676 759.660, 215.447 756.765 C 213.217 753.869, 208.315 746.775, 204.553 741 C 200.791 735.225, 196.562 728.700, 195.156 726.500 C 193.751 724.300, 191.837 721.600, 190.903 720.500 C 189.969 719.400, 187.294 714.900, 184.957 710.500 C 182.620 706.100, 178.780 698.675, 176.424 694 C 174.068 689.325, 170.272 681.225, 167.987 676 C 165.703 670.775, 162.260 661.775, 160.336 656 C 158.413 650.225, 156.098 644.375, 155.193 643 C 154.287 641.625, 151.854 633.975, 149.785 626 C 147.716 618.025, 145.322 608.350, 144.464 604.500 C 143.605 600.650, 142.041 593, 140.986 587.500 C 139.932 582, 138.613 573.760, 138.055 569.188 C 137.497 564.617, 136.746 554.042, 136.385 545.688 C 136.025 537.335, 135.263 529.911, 134.693 529.191 C 134.123 528.470, 133.742 525.095, 133.846 521.691 C 133.950 518.286, 134.476 511.675, 135.016 507 C 135.555 502.325, 136.468 492.200, 137.044 484.500 C 137.620 476.800, 138.947 465.325, 139.992 459 C 141.038 452.675, 142.871 443.900, 144.065 439.500 C 145.260 435.100, 146.444 430.150, 146.697 428.500 C 146.951 426.850, 148.284 420.325, 149.659 414 C 151.035 407.675, 152.754 401.825, 153.481 401 C 154.207 400.175, 156.652 394.100, 158.915 387.500 C 161.177 380.900, 164.437 372.125, 166.159 368 C 167.881 363.875, 172.678 353.525, 176.819 345 C 180.960 336.475, 186.092 326.847, 188.223 323.605 C 190.354 320.363, 192.810 316.313, 193.679 314.605 C 194.549 312.897, 197.663 308.290, 200.598 304.367 C 203.534 300.443, 206.500 295.997, 207.189 294.485 C 208.386 291.858, 208.222 291.546, 203.470 287.389 C 200.737 284.998, 198.150 283.032, 197.723 283.021 C 197.296 283.009, 192.796 279.572, 187.723 275.383 C 182.650 271.194, 175.972 265.119, 172.883 261.883 C 169.794 258.647, 166.949 256, 166.562 256 C 166.175 256, 163.528 253.993, 160.679 251.540 C 157.831 249.087, 153.052 245.037, 150.060 242.540 C 147.068 240.043, 144.334 238, 143.984 238 C 143.635 238, 142.310 239.106, 141.040 240.457 M 243 403.778 C 243 404.206, 243.900 405.326, 245 406.268 C 246.934 407.924, 247 409.218, 247 445.500 C 247 481.782, 246.934 483.076, 245 484.732 C 243.900 485.674, 243 486.794, 243 487.222 C 243 487.650, 248.850 488, 256 488 C 263.150 488, 269 487.650, 269 487.222 C 269 486.794, 268.141 485.709, 267.091 484.810 C 265.369 483.336, 265.168 481.590, 265.051 467.087 C 264.921 451, 264.921 451, 289.461 451 C 314 451, 314 451, 314 467.492 C 314 482.900, 313.869 484.065, 312 485.232 C 310.900 485.919, 310 486.823, 310 487.241 C 310 487.658, 316.075 488, 323.500 488 C 330.925 488, 337 487.650, 337 487.222 C 337 486.794, 336.100 485.674, 335 484.732 C 333.066 483.076, 333 481.782, 333 445.510 C 333 409.333, 333.071 407.929, 335 406 C 336.100 404.900, 337 403.775, 337 403.500 C 337 403.225, 330.925 403, 323.500 403 C 315.167 403, 310 403.383, 310 404 C 310 404.550, 310.627 405, 311.393 405 C 312.159 405, 313.059 405.712, 313.393 406.582 C 313.727 407.452, 314 414.660, 314 422.600 C 314 437.036, 314 437.036, 289.750 436.768 C 265.500 436.500, 265.500 436.500, 265.223 422.264 C 264.964 409.014, 265.086 407.907, 266.973 406.291 C 268.088 405.337, 269 404.206, 269 403.778 C 269 403.350, 263.150 403, 256 403 C 248.850 403, 243 403.350, 243 403.778 M 558 424.500 C 558 430.578, 558.406 435, 558.965 435 C 559.495 435, 560.411 434.100, 561 433 C 561.975 431.179, 563.094 431, 573.535 431 C 585 431, 585 431, 585 457.933 C 585 483.987, 584.935 484.886, 583 485.500 C 581.900 485.849, 581 486.554, 581 487.067 C 581 487.594, 586.435 488, 593.500 488 C 600.375 488, 606 487.658, 606 487.241 C 606 486.823, 605.100 485.919, 604 485.232 C 602.082 484.034, 602 482.900, 602 457.492 C 602 431, 602 431, 614.094 431 C 625.346 431, 626.224 431.139, 626.710 433 C 626.998 434.100, 627.631 435, 628.117 435 C 628.602 435, 629 430.275, 629 424.500 C 629 418.725, 628.658 414, 628.241 414 C 627.823 414, 626.919 414.900, 626.232 416 C 625.027 417.930, 623.900 418, 593.982 418 C 564.218 418, 562.912 417.920, 561.268 416 C 560.326 414.900, 559.206 414, 558.778 414 C 558.350 414, 558 418.725, 558 424.500 M 375 419.031 C 375 419.599, 375.675 420.322, 376.500 420.638 C 377.345 420.963, 378 422.451, 378 424.047 C 378 425.692, 371.897 439.122, 363.461 456.044 C 353.075 476.876, 348.362 485.354, 346.961 485.720 C 345.882 486.003, 345 486.631, 345 487.117 C 345 487.602, 350.850 488, 358 488 C 365.150 488, 371 487.658, 371 487.241 C 371 486.823, 370.100 485.919, 369 485.232 C 367.900 484.545, 367 483.283, 367 482.427 C 367 481.571, 367.955 478.650, 369.123 475.935 C 371.246 471, 371.246 471, 387.924 471 C 404.601 471, 404.601 471, 406.801 475.527 C 408.010 478.016, 409 481.136, 409 482.459 C 409 483.987, 408.270 485.097, 407 485.500 C 405.900 485.849, 405 486.554, 405 487.067 C 405 487.601, 411.198 488, 419.500 488 C 427.475 488, 434 487.622, 434 487.161 C 434 486.699, 432.967 485.850, 431.705 485.275 C 430.092 484.540, 424.888 475.704, 414.205 455.558 C 405.842 439.788, 399 425.842, 399 424.566 C 399 423.289, 399.675 421.685, 400.500 421 C 401.325 420.315, 402 419.360, 402 418.878 C 402 418.395, 395.925 418, 388.500 418 C 379.893 418, 375 418.374, 375 419.031 M 440 418.433 C 440 418.745, 440.900 419.900, 442 421 C 443.911 422.911, 444 424.333, 444 453 C 444 481.667, 443.911 483.089, 442 485 C 440.900 486.100, 440 487.255, 440 487.567 C 440 487.879, 453.387 487.990, 469.750 487.814 C 495.808 487.534, 499.996 487.271, 503.500 485.694 C 505.700 484.704, 508.793 482.680, 510.373 481.197 C 511.953 479.714, 513.866 477.052, 514.623 475.282 C 515.380 473.512, 515.999 469.912, 515.998 467.282 C 515.998 464.652, 515.210 460.925, 514.248 459 C 513.287 457.075, 510.816 454.415, 508.759 453.088 C 505.018 450.676, 505.018 450.676, 508.919 447.075 C 511.544 444.651, 513.050 442.250, 513.522 439.736 C 513.907 437.681, 513.946 434.538, 513.608 432.750 C 513.271 430.962, 512.139 428.099, 511.095 426.387 C 510.031 424.642, 507.063 422.223, 504.348 420.887 C 499.620 418.559, 498.766 418.492, 469.750 418.183 C 453.387 418.009, 440 418.121, 440 418.433 M 526 418.759 C 526 419.177, 526.900 420.081, 528 420.768 C 529.931 421.974, 530 423.100, 530 453.441 C 530 483.987, 529.944 484.883, 528 485.500 C 526.900 485.849, 526 486.554, 526 487.067 C 526 487.594, 531.435 488, 538.500 488 C 545.375 488, 551 487.775, 551 487.500 C 551 487.225, 550.100 486.100, 549 485 C 547.089 483.089, 547 481.667, 547 453 C 547 424.333, 547.089 422.911, 549 421 C 550.100 419.900, 551 418.775, 551 418.500 C 551 418.225, 545.375 418, 538.500 418 C 531.625 418, 526 418.342, 526 418.759 M 461 437.500 C 461 444, 461 444, 476.809 444 C 487.895 444, 493.119 443.627, 494.295 442.750 C 495.218 442.063, 496.251 440.084, 496.591 438.354 C 497.064 435.944, 496.716 434.716, 495.104 433.104 C 493.141 431.141, 491.931 431, 477 431 C 461 431, 461 431, 461 437.500 M 382.145 449.583 C 379.315 455.404, 377 460.354, 377 460.583 C 377 460.812, 381.725 461, 387.500 461 C 393.958 461, 398 460.608, 398 459.982 C 398 459.422, 395.746 454.472, 392.991 448.982 C 390.236 443.492, 387.826 439, 387.636 439 C 387.446 439, 384.975 443.762, 382.145 449.583 M 461 465.933 C 461 475, 461 475, 476.550 475 C 488.241 475, 492.801 474.637, 494.928 473.537 C 496.485 472.732, 498.037 471.346, 498.379 470.455 C 498.720 469.565, 499 467.377, 499 465.593 C 499 463.400, 498.165 461.563, 496.422 459.924 C 493.944 457.593, 493.215 457.488, 477.422 457.183 C 461 456.865, 461 456.865, 461 465.933 M 236 552 C 236 558.050, 236.342 563, 236.759 563 C 237.177 563, 238.081 562.100, 238.768 561 C 239.924 559.149, 241.100 559, 254.508 559 C 269 559, 269 559, 269 592.010 C 269 623.782, 268.925 625.084, 267 626.732 C 265.900 627.674, 265 628.794, 265 629.222 C 265 629.650, 271.075 630, 278.500 630 C 285.925 630, 292 629.658, 292 629.241 C 292 628.823, 291.100 627.919, 290 627.232 C 288.065 626.023, 288 624.900, 288 592.492 C 288 559, 288 559, 302.594 559 C 316.346 559, 317.217 559.115, 317.710 561 C 317.998 562.100, 318.856 563, 319.617 563 C 320.711 563, 321 560.699, 321 552 C 321 545.333, 320.606 541, 320 541 C 319.450 541, 318.100 541.900, 317 543 C 315.072 544.928, 313.667 545, 277.990 545 C 242.218 545, 240.923 544.933, 239.268 543 C 238.326 541.900, 237.206 541, 236.778 541 C 236.350 541, 236 545.950, 236 552 M 747.732 558 C 746.085 559.924, 744.782 560, 713.510 560 C 695.629 560, 681 560.342, 681 560.759 C 681 561.177, 681.900 562.081, 683 562.768 C 684.930 563.973, 685 565.100, 685 595 C 685 624.900, 684.930 626.027, 683 627.232 C 681.900 627.919, 681 628.823, 681 629.241 C 681 629.658, 696.079 630, 714.510 630 C 746.782 630, 748.083 630.074, 749.732 632 C 750.674 633.100, 751.794 634, 752.222 634 C 752.650 634, 753 629.275, 753 623.500 C 753 617.422, 752.594 613, 752.035 613 C 751.505 613, 750.589 613.900, 750 615 C 748.976 616.913, 747.906 617, 725.465 617 C 702 617, 702 617, 702 608.500 C 702 600, 702 600, 715.845 600 C 728.420 600, 729.856 600.183, 731.500 602 C 732.495 603.100, 733.690 604, 734.155 604 C 734.620 604, 735 599.500, 735 594 C 735 588.243, 734.591 584, 734.035 584 C 733.505 584, 732.589 584.900, 732 586 C 731.005 587.858, 729.906 588, 716.465 588 C 702 588, 702 588, 702 580.500 C 702 573, 702 573, 724.465 573 C 745.906 573, 746.978 573.091, 748 575 C 748.589 576.100, 749.505 577, 750.035 577 C 750.594 577, 751 572.578, 751 566.500 C 751 560.725, 750.650 556, 750.222 556 C 749.794 556, 748.674 556.900, 747.732 558 M 530.281 559.970 C 528.511 560.390, 524.590 561.945, 521.567 563.423 C 518.544 564.902, 514.298 568.127, 512.130 570.590 C 509.962 573.052, 507.171 577.190, 505.927 579.784 C 504.298 583.180, 503.539 586.934, 503.213 593.196 C 502.862 599.942, 503.167 603.024, 504.574 606.935 C 505.571 609.709, 507.993 614.102, 509.955 616.698 C 511.917 619.294, 515.317 622.644, 517.511 624.141 C 519.705 625.638, 524.322 627.794, 527.771 628.931 C 532.391 630.455, 536.621 631, 543.839 631 C 549.876 631, 555.722 630.387, 559.068 629.404 C 562.056 628.526, 567.607 626.183, 571.405 624.198 C 575.203 622.213, 579.365 620.677, 580.655 620.784 C 581.945 620.890, 583 620.714, 583 620.392 C 583 620.070, 580.732 616.588, 577.960 612.653 C 575.188 608.719, 572.601 605.586, 572.210 605.691 C 571.820 605.796, 571.256 606.921, 570.959 608.191 C 570.581 609.801, 568.404 611.528, 563.762 613.897 C 558.513 616.576, 555.548 617.394, 549.724 617.767 C 544.677 618.091, 540.626 617.739, 536.921 616.655 C 533.939 615.782, 529.853 613.704, 527.840 612.036 C 525.827 610.367, 523.239 607.060, 522.090 604.685 C 520.766 601.950, 520 598.402, 520 595 C 520 591.598, 520.766 588.050, 522.090 585.315 C 523.239 582.940, 525.759 579.696, 527.690 578.104 C 529.620 576.513, 533.675 574.432, 536.701 573.480 C 540.634 572.243, 544.271 571.883, 549.456 572.215 C 555.089 572.577, 558.242 573.443, 563.568 576.090 C 568.431 578.508, 570.582 580.172, 570.963 581.809 C 571.258 583.079, 571.820 584.204, 572.210 584.309 C 572.601 584.414, 575.188 581.281, 577.960 577.347 C 580.732 573.412, 583 569.872, 583 569.480 C 583 569.088, 582.071 569.010, 580.935 569.307 C 579.640 569.645, 576.191 568.403, 571.685 565.974 C 567.733 563.844, 561.818 561.403, 558.540 560.550 C 554.966 559.621, 548.761 559.041, 543.040 559.102 C 537.793 559.159, 532.052 559.549, 530.281 559.970 M 327 560.759 C 327 561.177, 327.900 562.081, 329 562.768 C 330.931 563.974, 331 565.100, 331 595.441 C 331 625.987, 330.944 626.883, 329 627.500 C 327.900 627.849, 327 628.554, 327 629.067 C 327 629.594, 332.435 630, 339.500 630 C 346.375 630, 352 629.775, 352 629.500 C 352 629.225, 351.086 628.086, 349.969 626.969 C 348.121 625.121, 347.963 623.876, 348.219 613.219 C 348.500 601.500, 348.500 601.500, 356.675 601.211 C 364.850 600.922, 364.850 600.922, 372.925 612.636 C 377.366 619.079, 381 624.899, 381 625.569 C 381 626.238, 380.325 627.045, 379.500 627.362 C 378.675 627.678, 378 628.401, 378 628.969 C 378 629.630, 383.206 630, 392.500 630 C 400.475 630, 406.983 629.663, 406.961 629.250 C 406.940 628.837, 405.490 627.599, 403.739 626.497 C 401.987 625.396, 396.830 619.344, 392.277 613.049 C 387.725 606.755, 384 601.302, 384 600.932 C 384 600.562, 386.085 599.676, 388.634 598.963 C 391.313 598.212, 394.855 596.154, 397.030 594.083 C 399.443 591.784, 401.225 588.890, 401.999 586.010 C 402.663 583.541, 402.933 579.530, 402.600 577.097 C 402.266 574.664, 401.183 571.286, 400.193 569.590 C 399.202 567.894, 396.937 565.527, 395.159 564.328 C 393.382 563.130, 389.671 561.666, 386.914 561.075 C 384.029 560.456, 370.253 560, 354.451 560 C 339.353 560, 327 560.342, 327 560.759 M 439 560.590 C 439 560.914, 439.993 561.983, 441.206 562.966 C 443.413 564.753, 443.413 564.753, 440.660 571.626 C 439.146 575.407, 432.415 589.300, 425.703 602.500 C 417.080 619.459, 412.840 626.790, 411.250 627.487 C 410.012 628.030, 409 628.818, 409 629.237 C 409 629.657, 414.850 630, 422 630 C 429.150 630, 435 629.658, 435 629.241 C 435 628.823, 434.100 627.919, 433 627.232 C 431.900 626.545, 431.004 625.424, 431.010 624.742 C 431.015 624.059, 432.119 621.138, 433.464 618.250 C 435.908 613, 435.908 613, 452.365 613 C 468.821 613, 468.821 613, 471.411 618.196 C 472.835 621.054, 474 623.976, 474 624.688 C 474 625.400, 473.100 626.545, 472 627.232 C 470.900 627.919, 470 628.823, 470 629.241 C 470 629.658, 476.300 630, 484 630 C 491.992 630, 498 629.600, 498 629.067 C 498 628.554, 497.211 627.884, 496.248 627.579 C 495.284 627.273, 494.004 626.230, 493.404 625.261 C 492.804 624.293, 485.718 611.063, 477.657 595.862 C 469.596 580.661, 463 567.415, 463 566.427 C 463 565.438, 463.978 563.587, 465.174 562.314 C 467.349 560, 467.349 560, 453.174 560 C 445.378 560, 439 560.265, 439 560.590 M 593 560.759 C 593 561.177, 593.900 562.081, 595 562.768 C 596.930 563.973, 597 565.100, 597 595 C 597 624.900, 596.930 626.027, 595 627.232 C 593.900 627.919, 593 628.823, 593 629.241 C 593 629.658, 598.625 630, 605.500 630 C 612.375 630, 618 629.658, 618 629.241 C 618 628.823, 617.100 627.919, 616 627.232 C 614.219 626.120, 614 624.900, 614 616.112 C 614 606.241, 614 606.241, 618.514 602.542 C 620.997 600.507, 623.488 598.996, 624.049 599.183 C 624.610 599.370, 629.996 605.368, 636.017 612.511 C 646.691 625.175, 646.916 625.542, 644.983 627.160 C 643.892 628.073, 643 629.086, 643 629.410 C 643 629.735, 649.975 630, 658.500 630 C 667.025 630, 674 629.605, 674 629.121 C 674 628.638, 672.686 627.699, 671.081 627.033 C 669.374 626.326, 662.004 618.698, 653.331 608.661 C 645.174 599.221, 637.947 590.788, 637.271 589.922 C 636.218 588.571, 638.049 586.718, 650.120 576.923 C 657.862 570.640, 665.726 564.600, 667.596 563.500 C 669.465 562.400, 670.996 561.163, 670.997 560.750 C 670.999 560.337, 664.025 560, 655.500 560 C 646.975 560, 640 560.288, 640 560.640 C 640 560.992, 640.748 561.827, 641.662 562.495 C 642.629 563.202, 643.066 564.386, 642.707 565.322 C 642.366 566.209, 635.881 571.875, 628.294 577.915 C 614.500 588.896, 614.500 588.896, 614.212 576.698 C 613.947 565.444, 614.082 564.372, 615.962 562.840 C 617.083 561.927, 618 560.914, 618 560.590 C 618 560.265, 612.375 560, 605.500 560 C 598.625 560, 593 560.342, 593 560.759 M 763 560.759 C 763 561.177, 763.900 562.081, 765 562.768 C 766.930 563.973, 767 565.100, 767 595 C 767 624.900, 766.930 626.027, 765 627.232 C 763.900 627.919, 763 628.823, 763 629.241 C 763 629.658, 768.625 630, 775.500 630 C 782.375 630, 788 629.658, 788 629.241 C 788 628.823, 787.100 627.919, 786 627.232 C 784.173 626.091, 784 624.900, 784 613.492 C 784 601, 784 601, 792.250 601.010 C 800.500 601.020, 800.500 601.020, 808.250 612.188 C 812.513 618.331, 816 624.190, 816 625.210 C 816 626.229, 815.325 627.322, 814.500 627.638 C 813.675 627.955, 813 628.616, 813 629.107 C 813 629.598, 819.750 630, 828 630 C 836.250 630, 843 629.605, 843 629.121 C 843 628.638, 841.714 627.710, 840.142 627.059 C 838.570 626.408, 836.221 624.440, 834.922 622.687 C 833.623 620.934, 829.522 615.264, 825.810 610.086 C 819.059 600.673, 819.059 600.673, 824.131 598.956 C 826.921 598.011, 830.395 596.368, 831.852 595.305 C 833.308 594.241, 835.324 591.714, 836.331 589.689 C 837.507 587.322, 838.151 583.864, 838.133 580.014 C 838.116 576.491, 837.401 572.539, 836.396 570.422 C 835.456 568.442, 833.070 565.759, 831.094 564.460 C 829.117 563.161, 825.475 561.637, 823 561.074 C 820.525 560.510, 806.013 560.038, 790.750 560.024 C 775.487 560.011, 763 560.342, 763 560.759 M 348.208 580.750 C 348.500 588.500, 348.500 588.500, 358.500 588.814 C 364 588.987, 371.376 588.832, 374.890 588.470 C 379.703 587.973, 381.862 587.228, 383.640 585.451 C 384.938 584.153, 386 581.925, 386 580.500 C 386 579.075, 384.895 576.805, 383.545 575.455 C 381.137 573.046, 380.781 573, 364.503 573 C 347.916 573, 347.916 573, 348.208 580.750 M 784 581.119 C 784 589.239, 784 589.239, 799.846 588.836 C 812.741 588.508, 816.185 588.109, 818.346 586.693 C 820.555 585.245, 821 584.214, 821 580.534 C 821 577.100, 820.504 575.766, 818.777 574.557 C 816.987 573.303, 813.391 573, 800.277 573 C 784 573, 784 573, 784 581.119 M 446.651 591.094 C 444.093 596.646, 442 601.596, 442 602.094 C 442 602.592, 446.725 603, 452.500 603 C 458.275 603, 463 602.852, 463 602.670 C 463 602.489, 460.492 597.539, 457.428 591.670 C 454.363 585.802, 451.731 581, 451.579 581 C 451.427 581, 449.210 585.542, 446.651 591.094 M 892.211 729 C 890.402 729.275, 889.024 729.950, 889.148 730.500 C 889.273 731.050, 892.968 734.799, 897.360 738.830 C 901.751 742.862, 906.954 747.360, 908.922 748.826 C 910.890 750.292, 917.900 755.977, 924.500 761.459 C 931.100 766.941, 940.007 774.896, 944.294 779.136 C 952.087 786.845, 952.087 786.845, 954.794 781.828 C 956.282 779.068, 959.300 774.065, 961.500 770.711 C 963.700 767.356, 966.944 762.111, 968.708 759.055 C 970.473 756, 972.708 751.925, 973.675 750 C 974.643 748.075, 976.336 745.166, 977.438 743.535 C 978.541 741.904, 979.569 739.742, 979.723 738.732 C 979.877 737.721, 980.716 735.516, 981.587 733.832 C 982.509 732.049, 982.799 730.399, 982.282 729.882 C 981.794 729.394, 962.068 728.883, 938.447 728.747 C 914.826 728.611, 894.020 728.725, 892.211 729" stroke="none" fill="#4bf904" fill-rule="evenodd"/><path d="M 0 512.001 C 0 1024.002, 0 1024.002, 540.250 1023.751 C 1080.500 1023.500, 1080.500 1023.500, 1080.751 511.750 C 1081.002 0, 1081.002 -0, 540.501 -0 C 0 0, 0 0, 0 512.001 M 0.496 512.500 C 0.496 794.100, 0.610 909.151, 0.750 768.168 C 0.890 627.186, 0.890 396.786, 0.750 256.168 C 0.610 115.551, 0.496 230.900, 0.496 512.500 M 519.355 32.979 C 519.091 33.242, 516.091 33.546, 512.688 33.654 C 509.284 33.761, 505.150 34.160, 503.500 34.539 C 501.850 34.918, 498.409 35.346, 495.854 35.491 C 493.299 35.635, 490.750 36.037, 490.190 36.383 C 489.629 36.729, 487.670 36.984, 485.836 36.949 C 484.001 36.914, 478.900 37.621, 474.500 38.519 C 470.100 39.417, 465.825 40.504, 465 40.933 C 464.175 41.363, 463.354 42.455, 463.176 43.360 C 462.998 44.265, 463.673 45.306, 464.676 45.673 C 465.679 46.040, 467.400 47.051, 468.500 47.920 C 469.600 48.789, 470.500 50.625, 470.500 52 C 470.500 53.375, 471.162 55.585, 471.971 56.912 C 472.780 58.238, 473.597 60.488, 473.786 61.912 C 473.976 63.335, 475.005 65.433, 476.074 66.574 C 477.144 67.715, 477.677 68.989, 477.261 69.406 C 476.844 69.823, 477.376 70.802, 478.443 71.582 C 479.509 72.362, 480.031 73, 479.602 73 C 479.173 73, 479.987 74.385, 481.411 76.077 C 482.835 77.769, 484.077 79.906, 484.171 80.827 C 484.265 81.747, 484.378 83.625, 484.421 85 C 484.464 86.375, 485.009 87.405, 485.631 87.290 C 486.253 87.174, 487.553 87.953, 488.519 89.021 C 489.917 90.565, 490.030 91.259, 489.071 92.414 C 488.109 93.573, 488.241 94.241, 489.722 95.722 C 490.743 96.743, 492.548 99.439, 493.733 101.713 C 495.616 105.324, 495.701 106.003, 494.411 107.074 C 493.127 108.139, 493.223 108.609, 495.141 110.650 C 496.355 111.943, 496.975 113, 496.519 113 C 496.063 113, 496.477 113.870, 497.439 114.933 C 498.473 116.075, 499.865 116.619, 500.844 116.263 C 502.272 115.744, 502.248 115.948, 500.667 117.751 C 498.880 119.789, 498.890 119.871, 501.066 121.035 C 502.677 121.898, 507.773 122.057, 519.399 121.608 C 528.254 121.266, 542.475 121.009, 551 121.038 C 559.525 121.067, 570.325 121.320, 575 121.600 C 579.675 121.880, 585.300 122.262, 587.500 122.449 C 589.700 122.636, 591.725 122.875, 592 122.979 C 592.275 123.083, 594.975 123.330, 598 123.527 C 601.025 123.724, 605.300 124.158, 607.500 124.491 C 609.700 124.825, 613.468 125.291, 615.873 125.529 C 618.279 125.766, 620.847 126.458, 621.580 127.066 C 622.313 127.674, 623.351 127.901, 623.887 127.570 C 624.423 127.238, 625.144 127.425, 625.490 127.984 C 625.835 128.543, 627.415 129, 629 129 C 630.585 129, 632.156 129.443, 632.491 129.985 C 632.825 130.526, 634.089 130.915, 635.300 130.848 C 636.510 130.780, 640.824 131.676, 644.887 132.837 C 648.950 133.998, 652.631 134.728, 653.068 134.458 C 653.505 134.188, 654.127 134.397, 654.451 134.921 C 654.776 135.446, 658.704 137.028, 663.182 138.438 C 667.659 139.847, 672.155 141, 673.172 141 C 674.189 141, 677.154 141.937, 679.761 143.081 C 682.367 144.226, 686.075 145.849, 688 146.689 C 689.925 147.528, 692.601 148.417, 693.946 148.663 C 695.291 148.909, 700.473 151.043, 705.462 153.406 C 710.450 155.768, 716.324 158.320, 718.515 159.076 C 720.707 159.833, 724.075 161.396, 726 162.549 C 727.925 163.702, 730.221 164.911, 731.103 165.235 C 731.984 165.559, 735.926 167.889, 739.863 170.412 C 743.799 172.935, 747.384 175, 747.828 175 C 748.273 175, 754.231 178.644, 761.068 183.098 C 767.906 187.553, 774.911 192.165, 776.635 193.348 C 778.360 194.532, 782.410 197.493, 785.635 199.929 C 788.861 202.365, 797.846 209.639, 805.602 216.092 C 813.359 222.546, 824.834 232.962, 831.102 239.238 C 837.371 245.515, 845.100 253.465, 848.279 256.904 C 851.457 260.344, 854.823 264.360, 855.759 265.829 C 856.694 267.298, 859.586 271.200, 862.184 274.500 C 864.783 277.800, 868.392 282.234, 870.205 284.353 C 872.017 286.472, 874.400 289.649, 875.500 291.412 C 876.600 293.176, 879.638 297.821, 882.250 301.734 C 884.862 305.648, 887 309.176, 887 309.574 C 887 309.972, 888.912 312.691, 891.250 315.617 C 893.587 318.542, 896.175 321.847, 897 322.960 C 898.466 324.938, 899.535 324.986, 944.330 325.078 C 969.537 325.130, 990.394 324.939, 990.680 324.653 C 990.966 324.368, 990.638 322.416, 989.951 320.317 C 989.264 318.218, 987.644 314.933, 986.351 313.018 C 985.058 311.103, 984 308.840, 984 307.990 C 984 307.140, 982.661 303.864, 981.024 300.710 C 979.388 297.555, 978.048 294.749, 978.046 294.473 C 978.045 294.198, 976.405 291.411, 974.403 288.281 C 972.401 285.151, 970.686 282.120, 970.592 281.545 C 970.499 280.970, 969.584 279.150, 968.561 277.500 C 967.537 275.850, 964.351 270.900, 961.480 266.500 C 958.609 262.100, 954.065 255.125, 951.381 251 C 948.697 246.875, 946.329 243.050, 946.117 242.500 C 945.905 241.950, 944.218 239.624, 942.366 237.332 C 940.515 235.039, 939 232.903, 939 232.584 C 939 232.265, 937.375 229.743, 935.389 226.978 C 933.402 224.213, 930.962 221.515, 929.965 220.981 C 928.968 220.448, 927.511 218.725, 926.727 217.154 C 925.943 215.583, 919.860 208.043, 913.209 200.398 C 906.559 192.754, 895.058 180.558, 887.652 173.296 C 880.246 166.034, 870.063 156.584, 865.022 152.296 C 859.982 148.008, 851.952 141.476, 847.179 137.780 C 842.406 134.084, 836.025 129.224, 833 126.981 C 829.975 124.738, 822.669 119.832, 816.764 116.080 C 810.858 112.328, 804.522 108.110, 802.682 106.706 C 800.842 105.303, 797.573 103.142, 795.418 101.905 C 793.263 100.668, 788.210 97.901, 784.189 95.757 C 780.169 93.612, 775.268 90.765, 773.300 89.429 C 771.331 88.093, 769.124 87, 768.395 87 C 767.666 87, 764.941 85.650, 762.339 84 C 759.737 82.350, 757.134 81.005, 756.554 81.012 C 755.974 81.018, 751.450 79.001, 746.500 76.529 C 741.550 74.057, 736.375 71.835, 735 71.592 C 733.625 71.348, 732.388 71.059, 732.250 70.949 C 732.112 70.840, 731.663 70.662, 731.250 70.554 C 730.837 70.446, 729.150 69.764, 727.500 69.040 C 725.850 68.315, 722.075 66.636, 719.111 65.308 C 716.147 63.981, 712.322 62.629, 710.611 62.305 C 708.900 61.981, 704.658 60.445, 701.185 58.891 C 697.711 57.337, 693.211 55.734, 691.185 55.328 C 689.158 54.922, 687.275 54.532, 687 54.461 C 686.725 54.390, 685.233 53.808, 683.685 53.166 C 682.137 52.525, 679.801 52, 678.494 52 C 677.187 52, 675.833 51.538, 675.484 50.973 C 675.135 50.409, 674.321 50.032, 673.675 50.136 C 673.029 50.241, 671.349 50, 669.941 49.602 C 668.534 49.205, 666.509 48.716, 665.441 48.516 C 664.374 48.316, 663.500 48.082, 663.500 47.994 C 663.500 47.907, 662.150 47.634, 660.500 47.387 C 658.850 47.141, 656.150 46.473, 654.500 45.903 C 652.850 45.334, 649.528 44.662, 647.117 44.411 C 644.706 44.159, 642.231 43.638, 641.617 43.252 C 641.003 42.866, 639.686 42.684, 638.690 42.848 C 637.695 43.012, 636.345 42.726, 635.690 42.214 C 635.036 41.701, 632.475 41.217, 630 41.139 C 627.525 41.061, 622.125 40.549, 618 40.002 C 613.875 39.455, 607.800 38.526, 604.500 37.937 C 601.200 37.349, 595.575 36.663, 592 36.412 C 588.425 36.162, 583.925 35.409, 582 34.739 C 580.075 34.070, 576.250 33.410, 573.500 33.274 C 570.750 33.138, 557.550 32.908, 544.167 32.763 C 530.784 32.618, 519.619 32.716, 519.355 32.979 M 141.040 240.457 C 139.770 241.809, 137.232 245.297, 135.400 248.207 C 133.568 251.118, 131.140 255.197, 130.004 257.270 C 128.868 259.344, 126.155 263.394, 123.974 266.270 C 121.793 269.147, 120.007 271.824, 120.004 272.219 C 120.002 272.615, 117.814 276.665, 115.141 281.219 C 112.469 285.774, 108.810 292.650, 107.011 296.500 C 105.211 300.350, 103.126 304.206, 102.378 305.070 C 101.629 305.933, 100.161 309.125, 99.116 312.163 C 98.071 315.201, 96.042 319.891, 94.608 322.585 C 93.173 325.280, 92 328.423, 92 329.571 C 92 330.718, 90.537 333.789, 88.750 336.395 C 86.962 339.002, 84.944 342.116, 84.265 343.317 C 83.585 344.518, 83.019 346.625, 83.006 348 C 82.993 349.375, 81.386 355, 79.436 360.500 C 77.486 366, 75.422 372.075, 74.850 374 C 74.278 375.925, 72.952 380.073, 71.905 383.218 C 70.857 386.364, 70 390.548, 70 392.518 C 70 394.488, 69.261 397.529, 68.357 399.276 C 67.454 401.024, 66.070 404.939, 65.282 407.977 C 64.494 411.014, 63.472 416.425, 63.010 420 C 62.548 423.575, 61.040 431, 59.659 436.500 C 58.277 442, 56.340 454.150, 55.353 463.500 C 53.986 476.464, 53.553 489.047, 53.530 516.500 C 53.514 536.300, 53.849 557, 54.275 562.500 C 54.702 568, 55.744 578.125, 56.591 585 C 57.438 591.875, 59.184 602, 60.470 607.500 C 61.755 613, 63.508 621.783, 64.365 627.018 C 65.221 632.252, 67.289 639.852, 68.961 643.905 C 70.632 647.959, 72 652.381, 72 653.734 C 72 655.086, 72.725 658.736, 73.611 661.846 C 74.497 664.956, 76.452 670.650, 77.956 674.500 C 79.460 678.350, 81.479 684.200, 82.444 687.500 C 83.409 690.800, 85.391 696.175, 86.849 699.445 C 88.307 702.715, 90.539 706.936, 91.808 708.825 C 93.077 710.714, 95.440 715.887, 97.058 720.322 C 98.677 724.757, 101.716 731.336, 103.813 734.943 C 105.910 738.549, 110.239 746.666, 113.434 752.979 C 116.628 759.293, 120.690 766.268, 122.460 768.479 C 124.229 770.691, 127.415 775.425, 129.538 779 C 131.661 782.575, 135.424 788.425, 137.900 792 C 140.376 795.575, 144.224 800.981, 146.451 804.013 C 148.678 807.046, 153.875 813.736, 158 818.881 C 162.125 824.026, 170.741 834.145, 177.147 841.368 C 183.553 848.590, 194.394 859.900, 201.238 866.500 C 208.082 873.100, 216.341 880.976, 219.591 884.002 C 222.841 887.028, 227.975 891.276, 231 893.441 C 234.025 895.607, 238.801 899.431, 241.613 901.939 C 244.425 904.448, 248.700 907.748, 251.113 909.274 C 253.526 910.799, 259.710 914.975, 264.855 918.552 C 270 922.130, 275.625 925.789, 277.355 926.683 C 279.085 927.577, 282.075 929.558, 284 931.084 C 285.925 932.611, 290.200 935.301, 293.500 937.063 C 296.800 938.824, 301.075 941.139, 303 942.205 C 304.925 943.272, 307.850 945.005, 309.500 946.057 C 311.150 947.109, 315.875 949.600, 320 951.593 C 324.125 953.586, 331.550 957.118, 336.500 959.443 C 341.450 961.767, 347.525 964.585, 350 965.705 C 352.475 966.825, 357.425 968.776, 361 970.040 C 364.575 971.304, 367.999 972.714, 368.609 973.174 C 369.219 973.634, 372.144 974.884, 375.109 975.951 C 378.074 977.018, 382.525 978.636, 385 979.547 C 387.475 980.458, 394.900 982.766, 401.500 984.675 C 408.100 986.584, 419.125 989.471, 426 991.090 C 432.875 992.710, 443.900 995.166, 450.500 996.549 C 457.100 997.932, 469.250 1000.205, 477.500 1001.599 C 485.750 1002.994, 498.575 1004.599, 506 1005.166 C 513.425 1005.733, 531.200 1006.248, 545.500 1006.312 C 559.800 1006.376, 572.063 1006.080, 572.750 1005.655 C 573.718 1005.056, 574 995.255, 574 962.141 C 574 933.435, 573.653 919.053, 572.943 918.343 C 572.228 917.628, 563.536 917.446, 546.130 917.781 C 530.793 918.076, 513.726 917.795, 503.937 917.088 C 494.897 916.434, 482.325 915.010, 476 913.923 C 469.675 912.837, 461.575 911.277, 458 910.457 C 454.425 909.637, 448.350 908.279, 444.500 907.440 C 440.650 906.601, 433.675 904.771, 429 903.373 C 424.325 901.975, 417.800 899.980, 414.500 898.940 C 411.200 897.899, 404.675 895.651, 400 893.944 C 395.325 892.236, 390.375 890.480, 389 890.041 C 387.625 889.602, 383.274 887.613, 379.331 885.621 C 375.388 883.630, 371.776 882, 371.303 882 C 370.831 882, 367.082 880.277, 362.972 878.171 C 358.863 876.065, 352.350 872.404, 348.500 870.035 C 344.650 867.667, 338.125 863.957, 334 861.791 C 329.875 859.625, 325.600 857.055, 324.500 856.079 C 323.400 855.103, 320.025 852.889, 317 851.159 C 313.975 849.429, 309.166 846.323, 306.313 844.257 C 303.461 842.191, 297.611 837.814, 293.313 834.531 C 289.016 831.248, 281.675 825.347, 277 821.418 C 272.325 817.488, 261.498 807.349, 252.940 798.887 C 244.382 790.424, 233.357 778.669, 228.440 772.765 C 223.523 766.860, 217.676 759.660, 215.447 756.765 C 213.217 753.869, 208.315 746.775, 204.553 741 C 200.791 735.225, 196.562 728.700, 195.156 726.500 C 193.751 724.300, 191.837 721.600, 190.903 720.500 C 189.969 719.400, 187.294 714.900, 184.957 710.500 C 182.620 706.100, 178.780 698.675, 176.424 694 C 174.068 689.325, 170.272 681.225, 167.987 676 C 165.703 670.775, 162.260 661.775, 160.336 656 C 158.413 650.225, 156.098 644.375, 155.193 643 C 154.287 641.625, 151.854 633.975, 149.785 626 C 147.716 618.025, 145.322 608.350, 144.464 604.500 C 143.605 600.650, 142.041 593, 140.986 587.500 C 139.932 582, 138.613 573.760, 138.055 569.188 C 137.497 564.617, 136.746 554.042, 136.385 545.688 C 136.025 537.335, 135.263 529.911, 134.693 529.191 C 134.123 528.470, 133.742 525.095, 133.846 521.691 C 133.950 518.286, 134.476 511.675, 135.016 507 C 135.555 502.325, 136.468 492.200, 137.044 484.500 C 137.620 476.800, 138.947 465.325, 139.992 459 C 141.038 452.675, 142.871 443.900, 144.065 439.500 C 145.260 435.100, 146.444 430.150, 146.697 428.500 C 146.951 426.850, 148.284 420.325, 149.659 414 C 151.035 407.675, 152.754 401.825, 153.481 401 C 154.207 400.175, 156.652 394.100, 158.915 387.500 C 161.177 380.900, 164.437 372.125, 166.159 368 C 167.881 363.875, 172.678 353.525, 176.819 345 C 180.960 336.475, 186.092 326.847, 188.223 323.605 C 190.354 320.363, 192.810 316.313, 193.679 314.605 C 194.549 312.897, 197.663 308.290, 200.598 304.367 C 203.534 300.443, 206.500 295.997, 207.189 294.485 C 208.386 291.858, 208.222 291.546, 203.470 287.389 C 200.737 284.998, 198.150 283.032, 197.723 283.021 C 197.296 283.009, 192.796 279.572, 187.723 275.383 C 182.650 271.194, 175.972 265.119, 172.883 261.883 C 169.794 258.647, 166.949 256, 166.562 256 C 166.175 256, 163.528 253.993, 160.679 251.540 C 157.831 249.087, 153.052 245.037, 150.060 242.540 C 147.068 240.043, 144.334 238, 143.984 238 C 143.635 238, 142.310 239.106, 141.040 240.457 M 243 403.778 C 243 404.206, 243.900 405.326, 245 406.268 C 246.934 407.924, 247 409.218, 247 445.500 C 247 481.782, 246.934 483.076, 245 484.732 C 243.900 485.674, 243 486.794, 243 487.222 C 243 487.650, 248.850 488, 256 488 C 263.150 488, 269 487.650, 269 487.222 C 269 486.794, 268.141 485.709, 267.091 484.810 C 265.369 483.336, 265.168 481.590, 265.051 467.087 C 264.921 451, 264.921 451, 289.461 451 C 314 451, 314 451, 314 467.492 C 314 482.900, 313.869 484.065, 312 485.232 C 310.900 485.919, 310 486.823, 310 487.241 C 310 487.658, 316.075 488, 323.500 488 C 330.925 488, 337 487.650, 337 487.222 C 337 486.794, 336.100 485.674, 335 484.732 C 333.066 483.076, 333 481.782, 333 445.510 C 333 409.333, 333.071 407.929, 335 406 C 336.100 404.900, 337 403.775, 337 403.500 C 337 403.225, 330.925 403, 323.500 403 C 315.167 403, 310 403.383, 310 404 C 310 404.550, 310.627 405, 311.393 405 C 312.159 405, 313.059 405.712, 313.393 406.582 C 313.727 407.452, 314 414.660, 314 422.600 C 314 437.036, 314 437.036, 289.750 436.768 C 265.500 436.500, 265.500 436.500, 265.223 422.264 C 264.964 409.014, 265.086 407.907, 266.973 406.291 C 268.088 405.337, 269 404.206, 269 403.778 C 269 403.350, 263.150 403, 256 403 C 248.850 403, 243 403.350, 243 403.778 M 558 424.500 C 558 430.578, 558.406 435, 558.965 435 C 559.495 435, 560.411 434.100, 561 433 C 561.975 431.179, 563.094 431, 573.535 431 C 585 431, 585 431, 585 457.933 C 585 483.987, 584.935 484.886, 583 485.500 C 581.900 485.849, 581 486.554, 581 487.067 C 581 487.594, 586.435 488, 593.500 488 C 600.375 488, 606 487.658, 606 487.241 C 606 486.823, 605.100 485.919, 604 485.232 C 602.082 484.034, 602 482.900, 602 457.492 C 602 431, 602 431, 614.094 431 C 625.346 431, 626.224 431.139, 626.710 433 C 626.998 434.100, 627.631 435, 628.117 435 C 628.602 435, 629 430.275, 629 424.500 C 629 418.725, 628.658 414, 628.241 414 C 627.823 414, 626.919 414.900, 626.232 416 C 625.027 417.930, 623.900 418, 593.982 418 C 564.218 418, 562.912 417.920, 561.268 416 C 560.326 414.900, 559.206 414, 558.778 414 C 558.350 414, 558 418.725, 558 424.500 M 375 419.031 C 375 419.599, 375.675 420.322, 376.500 420.638 C 377.345 420.963, 378 422.451, 378 424.047 C 378 425.692, 371.897 439.122, 363.461 456.044 C 353.075 476.876, 348.362 485.354, 346.961 485.720 C 345.882 486.003, 345 486.631, 345 487.117 C 345 487.602, 350.850 488, 358 488 C 365.150 488, 371 487.658, 371 487.241 C 371 486.823, 370.100 485.919, 369 485.232 C 367.900 484.545, 367 483.283, 367 482.427 C 367 481.571, 367.955 478.650, 369.123 475.935 C 371.246 471, 371.246 471, 387.924 471 C 404.601 471, 404.601 471, 406.801 475.527 C 408.010 478.016, 409 481.136, 409 482.459 C 409 483.987, 408.270 485.097, 407 485.500 C 405.900 485.849, 405 486.554, 405 487.067 C 405 487.601, 411.198 488, 419.500 488 C 427.475 488, 434 487.622, 434 487.161 C 434 486.699, 432.967 485.850, 431.705 485.275 C 430.092 484.540, 424.888 475.704, 414.205 455.558 C 405.842 439.788, 399 425.842, 399 424.566 C 399 423.289, 399.675 421.685, 400.500 421 C 401.325 420.315, 402 419.360, 402 418.878 C 402 418.395, 395.925 418, 388.500 418 C 379.893 418, 375 418.374, 375 419.031 M 440 418.433 C 440 418.745, 440.900 419.900, 442 421 C 443.911 422.911, 444 424.333, 444 453 C 444 481.667, 443.911 483.089, 442 485 C 440.900 486.100, 440 487.255, 440 487.567 C 440 487.879, 453.387 487.990, 469.750 487.814 C 495.808 487.534, 499.996 487.271, 503.500 485.694 C 505.700 484.704, 508.793 482.680, 510.373 481.197 C 511.953 479.714, 513.866 477.052, 514.623 475.282 C 515.380 473.512, 515.999 469.912, 515.998 467.282 C 515.998 464.652, 515.210 460.925, 514.248 459 C 513.287 457.075, 510.816 454.415, 508.759 453.088 C 505.018 450.676, 505.018 450.676, 508.919 447.075 C 511.544 444.651, 513.050 442.250, 513.522 439.736 C 513.907 437.681, 513.946 434.538, 513.608 432.750 C 513.271 430.962, 512.139 428.099, 511.095 426.387 C 510.031 424.642, 507.063 422.223, 504.348 420.887 C 499.620 418.559, 498.766 418.492, 469.750 418.183 C 453.387 418.009, 440 418.121, 440 418.433 M 526 418.759 C 526 419.177, 526.900 420.081, 528 420.768 C 529.931 421.974, 530 423.100, 530 453.441 C 530 483.987, 529.944 484.883, 528 485.500 C 526.900 485.849, 526 486.554, 526 487.067 C 526 487.594, 531.435 488, 538.500 488 C 545.375 488, 551 487.775, 551 487.500 C 551 487.225, 550.100 486.100, 549 485 C 547.089 483.089, 547 481.667, 547 453 C 547 424.333, 547.089 422.911, 549 421 C 550.100 419.900, 551 418.775, 551 418.500 C 551 418.225, 545.375 418, 538.500 418 C 531.625 418, 526 418.342, 526 418.759 M 461 437.500 C 461 444, 461 444, 476.809 444 C 487.895 444, 493.119 443.627, 494.295 442.750 C 495.218 442.063, 496.251 440.084, 496.591 438.354 C 497.064 435.944, 496.716 434.716, 495.104 433.104 C 493.141 431.141, 491.931 431, 477 431 C 461 431, 461 431, 461 437.500 M 382.145 449.583 C 379.315 455.404, 377 460.354, 377 460.583 C 377 460.812, 381.725 461, 387.500 461 C 393.958 461, 398 460.608, 398 459.982 C 398 459.422, 395.746 454.472, 392.991 448.982 C 390.236 443.492, 387.826 439, 387.636 439 C 387.446 439, 384.975 443.762, 382.145 449.583 M 461 465.933 C 461 475, 461 475, 476.550 475 C 488.241 475, 492.801 474.637, 494.928 473.537 C 496.485 472.732, 498.037 471.346, 498.379 470.455 C 498.720 469.565, 499 467.377, 499 465.593 C 499 463.400, 498.165 461.563, 496.422 459.924 C 493.944 457.593, 493.215 457.488, 477.422 457.183 C 461 456.865, 461 456.865, 461 465.933 M 236 552 C 236 558.050, 236.342 563, 236.759 563 C 237.177 563, 238.081 562.100, 238.768 561 C 239.924 559.149, 241.100 559, 254.508 559 C 269 559, 269 559, 269 592.010 C 269 623.782, 268.925 625.084, 267 626.732 C 265.900 627.674, 265 628.794, 265 629.222 C 265 629.650, 271.075 630, 278.500 630 C 285.925 630, 292 629.658, 292 629.241 C 292 628.823, 291.100 627.919, 290 627.232 C 288.065 626.023, 288 624.900, 288 592.492 C 288 559, 288 559, 302.594 559 C 316.346 559, 317.217 559.115, 317.710 561 C 317.998 562.100, 318.856 563, 319.617 563 C 320.711 563, 321 560.699, 321 552 C 321 545.333, 320.606 541, 320 541 C 319.450 541, 318.100 541.900, 317 543 C 315.072 544.928, 313.667 545, 277.990 545 C 242.218 545, 240.923 544.933, 239.268 543 C 238.326 541.900, 237.206 541, 236.778 541 C 236.350 541, 236 545.950, 236 552 M 747.732 558 C 746.085 559.924, 744.782 560, 713.510 560 C 695.629 560, 681 560.342, 681 560.759 C 681 561.177, 681.900 562.081, 683 562.768 C 684.930 563.973, 685 565.100, 685 595 C 685 624.900, 684.930 626.027, 683 627.232 C 681.900 627.919, 681 628.823, 681 629.241 C 681 629.658, 696.079 630, 714.510 630 C 746.782 630, 748.083 630.074, 749.732 632 C 750.674 633.100, 751.794 634, 752.222 634 C 752.650 634, 753 629.275, 753 623.500 C 753 617.422, 752.594 613, 752.035 613 C 751.505 613, 750.589 613.900, 750 615 C 748.976 616.913, 747.906 617, 725.465 617 C 702 617, 702 617, 702 608.500 C 702 600, 702 600, 715.845 600 C 728.420 600, 729.856 600.183, 731.500 602 C 732.495 603.100, 733.690 604, 734.155 604 C 734.620 604, 735 599.500, 735 594 C 735 588.243, 734.591 584, 734.035 584 C 733.505 584, 732.589 584.900, 732 586 C 731.005 587.858, 729.906 588, 716.465 588 C 702 588, 702 588, 702 580.500 C 702 573, 702 573, 724.465 573 C 745.906 573, 746.978 573.091, 748 575 C 748.589 576.100, 749.505 577, 750.035 577 C 750.594 577, 751 572.578, 751 566.500 C 751 560.725, 750.650 556, 750.222 556 C 749.794 556, 748.674 556.900, 747.732 558 M 530.281 559.970 C 528.511 560.390, 524.590 561.945, 521.567 563.423 C 518.544 564.902, 514.298 568.127, 512.130 570.590 C 509.962 573.052, 507.171 577.190, 505.927 579.784 C 504.298 583.180, 503.539 586.934, 503.213 593.196 C 502.862 599.942, 503.167 603.024, 504.574 606.935 C 505.571 609.709, 507.993 614.102, 509.955 616.698 C 511.917 619.294, 515.317 622.644, 517.511 624.141 C 519.705 625.638, 524.322 627.794, 527.771 628.931 C 532.391 630.455, 536.621 631, 543.839 631 C 549.876 631, 555.722 630.387, 559.068 629.404 C 562.056 628.526, 567.607 626.183, 571.405 624.198 C 575.203 622.213, 579.365 620.677, 580.655 620.784 C 581.945 620.890, 583 620.714, 583 620.392 C 583 620.070, 580.732 616.588, 577.960 612.653 C 575.188 608.719, 572.601 605.586, 572.210 605.691 C 571.820 605.796, 571.256 606.921, 570.959 608.191 C 570.581 609.801, 568.404 611.528, 563.762 613.897 C 558.513 616.576, 555.548 617.394, 549.724 617.767 C 544.677 618.091, 540.626 617.739, 536.921 616.655 C 533.939 615.782, 529.853 613.704, 527.840 612.036 C 525.827 610.367, 523.239 607.060, 522.090 604.685 C 520.766 601.950, 520 598.402, 520 595 C 520 591.598, 520.766 588.050, 522.090 585.315 C 523.239 582.940, 525.759 579.696, 527.690 578.104 C 529.620 576.513, 533.675 574.432, 536.701 573.480 C 540.634 572.243, 544.271 571.883, 549.456 572.215 C 555.089 572.577, 558.242 573.443, 563.568 576.090 C 568.431 578.508, 570.582 580.172, 570.963 581.809 C 571.258 583.079, 571.820 584.204, 572.210 584.309 C 572.601 584.414, 575.188 581.281, 577.960 577.347 C 580.732 573.412, 583 569.872, 583 569.480 C 583 569.088, 582.071 569.010, 580.935 569.307 C 579.640 569.645, 576.191 568.403, 571.685 565.974 C 567.733 563.844, 561.818 561.403, 558.540 560.550 C 554.966 559.621, 548.761 559.041, 543.040 559.102 C 537.793 559.159, 532.052 559.549, 530.281 559.970 M 327 560.759 C 327 561.177, 327.900 562.081, 329 562.768 C 330.931 563.974, 331 565.100, 331 595.441 C 331 625.987, 330.944 626.883, 329 627.500 C 327.900 627.849, 327 628.554, 327 629.067 C 327 629.594, 332.435 630, 339.500 630 C 346.375 630, 352 629.775, 352 629.500 C 352 629.225, 351.086 628.086, 349.969 626.969 C 348.121 625.121, 347.963 623.876, 348.219 613.219 C 348.500 601.500, 348.500 601.500, 356.675 601.211 C 364.850 600.922, 364.850 600.922, 372.925 612.636 C 377.366 619.079, 381 624.899, 381 625.569 C 381 626.238, 380.325 627.045, 379.500 627.362 C 378.675 627.678, 378 628.401, 378 628.969 C 378 629.630, 383.206 630, 392.500 630 C 400.475 630, 406.983 629.663, 406.961 629.250 C 406.940 628.837, 405.490 627.599, 403.739 626.497 C 401.987 625.396, 396.830 619.344, 392.277 613.049 C 387.725 606.755, 384 601.302, 384 600.932 C 384 600.562, 386.085 599.676, 388.634 598.963 C 391.313 598.212, 394.855 596.154, 397.030 594.083 C 399.443 591.784, 401.225 588.890, 401.999 586.010 C 402.663 583.541, 402.933 579.530, 402.600 577.097 C 402.266 574.664, 401.183 571.286, 400.193 569.590 C 399.202 567.894, 396.937 565.527, 395.159 564.328 C 393.382 563.130, 389.671 561.666, 386.914 561.075 C 384.029 560.456, 370.253 560, 354.451 560 C 339.353 560, 327 560.342, 327 560.759 M 439 560.590 C 439 560.914, 439.993 561.983, 441.206 562.966 C 443.413 564.753, 443.413 564.753, 440.660 571.626 C 439.146 575.407, 432.415 589.300, 425.703 602.500 C 417.080 619.459, 412.840 626.790, 411.250 627.487 C 410.012 628.030, 409 628.818, 409 629.237 C 409 629.657, 414.850 630, 422 630 C 429.150 630, 435 629.658, 435 629.241 C 435 628.823, 434.100 627.919, 433 627.232 C 431.900 626.545, 431.004 625.424, 431.010 624.742 C 431.015 624.059, 432.119 621.138, 433.464 618.250 C 435.908 613, 435.908 613, 452.365 613 C 468.821 613, 468.821 613, 471.411 618.196 C 472.835 621.054, 474 623.976, 474 624.688 C 474 625.400, 473.100 626.545, 472 627.232 C 470.900 627.919, 470 628.823, 470 629.241 C 470 629.658, 476.300 630, 484 630 C 491.992 630, 498 629.600, 498 629.067 C 498 628.554, 497.211 627.884, 496.248 627.579 C 495.284 627.273, 494.004 626.230, 493.404 625.261 C 492.804 624.293, 485.718 611.063, 477.657 595.862 C 469.596 580.661, 463 567.415, 463 566.427 C 463 565.438, 463.978 563.587, 465.174 562.314 C 467.349 560, 467.349 560, 453.174 560 C 445.378 560, 439 560.265, 439 560.590 M 593 560.759 C 593 561.177, 593.900 562.081, 595 562.768 C 596.930 563.973, 597 565.100, 597 595 C 597 624.900, 596.930 626.027, 595 627.232 C 593.900 627.919, 593 628.823, 593 629.241 C 593 629.658, 598.625 630, 605.500 630 C 612.375 630, 618 629.658, 618 629.241 C 618 628.823, 617.100 627.919, 616 627.232 C 614.219 626.120, 614 624.900, 614 616.112 C 614 606.241, 614 606.241, 618.514 602.542 C 620.997 600.507, 623.488 598.996, 624.049 599.183 C 624.610 599.370, 629.996 605.368, 636.017 612.511 C 646.691 625.175, 646.916 625.542, 644.983 627.160 C 643.892 628.073, 643 629.086, 643 629.410 C 643 629.735, 649.975 630, 658.500 630 C 667.025 630, 674 629.605, 674 629.121 C 674 628.638, 672.686 627.699, 671.081 627.033 C 669.374 626.326, 662.004 618.698, 653.331 608.661 C 645.174 599.221, 637.947 590.788, 637.271 589.922 C 636.218 588.571, 638.049 586.718, 650.120 576.923 C 657.862 570.640, 665.726 564.600, 667.596 563.500 C 669.465 562.400, 670.996 561.163, 670.997 560.750 C 670.999 560.337, 664.025 560, 655.500 560 C 646.975 560, 640 560.288, 640 560.640 C 640 560.992, 640.748 561.827, 641.662 562.495 C 642.629 563.202, 643.066 564.386, 642.707 565.322 C 642.366 566.209, 635.881 571.875, 628.294 577.915 C 614.500 588.896, 614.500 588.896, 614.212 576.698 C 613.947 565.444, 614.082 564.372, 615.962 562.840 C 617.083 561.927, 618 560.914, 618 560.590 C 618 560.265, 612.375 560, 605.500 560 C 598.625 560, 593 560.342, 593 560.759 M 763 560.759 C 763 561.177, 763.900 562.081, 765 562.768 C 766.930 563.973, 767 565.100, 767 595 C 767 624.900, 766.930 626.027, 765 627.232 C 763.900 627.919, 763 628.823, 763 629.241 C 763 629.658, 768.625 630, 775.500 630 C 782.375 630, 788 629.658, 788 629.241 C 788 628.823, 787.100 627.919, 786 627.232 C 784.173 626.091, 784 624.900, 784 613.492 C 784 601, 784 601, 792.250 601.010 C 800.500 601.020, 800.500 601.020, 808.250 612.188 C 812.513 618.331, 816 624.190, 816 625.210 C 816 626.229, 815.325 627.322, 814.500 627.638 C 813.675 627.955, 813 628.616, 813 629.107 C 813 629.598, 819.750 630, 828 630 C 836.250 630, 843 629.605, 843 629.121 C 843 628.638, 841.714 627.710, 840.142 627.059 C 838.570 626.408, 836.221 624.440, 834.922 622.687 C 833.623 620.934, 829.522 615.264, 825.810 610.086 C 819.059 600.673, 819.059 600.673, 824.131 598.956 C 826.921 598.011, 830.395 596.368, 831.852 595.305 C 833.308 594.241, 835.324 591.714, 836.331 589.689 C 837.507 587.322, 838.151 583.864, 838.133 580.014 C 838.116 576.491, 837.401 572.539, 836.396 570.422 C 835.456 568.442, 833.070 565.759, 831.094 564.460 C 829.117 563.161, 825.475 561.637, 823 561.074 C 820.525 560.510, 806.013 560.038, 790.750 560.024 C 775.487 560.011, 763 560.342, 763 560.759 M 348.208 580.750 C 348.500 588.500, 348.500 588.500, 358.500 588.814 C 364 588.987, 371.376 588.832, 374.890 588.470 C 379.703 587.973, 381.862 587.228, 383.640 585.451 C 384.938 584.153, 386 581.925, 386 580.500 C 386 579.075, 384.895 576.805, 383.545 575.455 C 381.137 573.046, 380.781 573, 364.503 573 C 347.916 573, 347.916 573, 348.208 580.750 M 784 581.119 C 784 589.239, 784 589.239, 799.846 588.836 C 812.741 588.508, 816.185 588.109, 818.346 586.693 C 820.555 585.245, 821 584.214, 821 580.534 C 821 577.100, 820.504 575.766, 818.777 574.557 C 816.987 573.303, 813.391 573, 800.277 573 C 784 573, 784 573, 784 581.119 M 446.651 591.094 C 444.093 596.646, 442 601.596, 442 602.094 C 442 602.592, 446.725 603, 452.500 603 C 458.275 603, 463 602.852, 463 602.670 C 463 602.489, 460.492 597.539, 457.428 591.670 C 454.363 585.802, 451.731 581, 451.579 581 C 451.427 581, 449.210 585.542, 446.651 591.094 M 892.211 729 C 890.402 729.275, 889.024 729.950, 889.148 730.500 C 889.273 731.050, 892.968 734.799, 897.360 738.830 C 901.751 742.862, 906.954 747.360, 908.922 748.826 C 910.890 750.292, 917.900 755.977, 924.500 761.459 C 931.100 766.941, 940.007 774.896, 944.294 779.136 C 952.087 786.845, 952.087 786.845, 954.794 781.828 C 956.282 779.068, 959.300 774.065, 961.500 770.711 C 963.700 767.356, 966.944 762.111, 968.708 759.055 C 970.473 756, 972.708 751.925, 973.675 750 C 974.643 748.075, 976.336 745.166, 977.438 743.535 C 978.541 741.904, 979.569 739.742, 979.723 738.732 C 979.877 737.721, 980.716 735.516, 981.587 733.832 C 982.509 732.049, 982.799 730.399, 982.282 729.882 C 981.794 729.394, 962.068 728.883, 938.447 728.747 C 914.826 728.611, 894.020 728.725, 892.211 729" stroke="none" fill="#040404" fill-rule="evenodd"/></svg>